<svg width="166" height="38" viewBox="0 0 166 38" fill="none" xmlns="http://www.w3.org/2000/svg">
<path d="M13.5659 27.6987C13.3252 28.1053 13.4283 28.5118 13.6174 28.9353C13.8582 29.4435 13.9613 29.9178 13.9613 30.4768C13.9613 31.527 13.7722 32.5942 13.8066 33.6444C13.841 34.593 14.2536 35.3214 15.1477 35.7449C16.0418 36.1684 17.1422 36.6088 18.1222 36.2023C18.3801 36.1006 18.5692 35.7449 18.3113 35.5247C17.1078 34.5083 15.5431 34.9488 14.2536 35.5586C13.4971 35.9143 12.7406 36.2192 11.9325 36.4902C11.1931 36.7443 10.4022 37.3203 9.59411 37.2864C9.73166 37.4219 9.86921 37.5574 10.0068 37.6929C10.0411 37.4558 10.2647 37.2356 10.4022 37.0662C10.5742 36.8629 10.7289 36.6596 10.9008 36.4733C11.2447 36.0837 11.5886 35.711 11.984 35.3723C12.3451 35.0673 12.775 34.7963 13.2564 34.6947C13.4799 34.6608 13.755 34.6439 13.9785 34.7116C14.3224 34.8302 14.2192 35.0673 14.0473 35.3214C13.5831 36.0837 12.6546 36.4902 11.8465 36.8121C11.3995 36.9984 10.918 37.1678 10.4366 37.1339C10.3678 37.1339 9.8864 37.1001 9.9036 36.9645C9.9036 36.9476 9.98956 36.9137 10.0068 36.8968C10.3334 36.5749 10.8321 36.3209 11.2275 36.0668C11.6402 35.7788 12.0528 35.5078 12.4483 35.2029C13.2564 34.5761 13.6862 33.8647 13.9269 32.8822C14.1676 31.8489 14.4256 30.7648 14.2708 29.6976C14.2192 29.2741 13.9785 28.7659 14.0645 28.3255C14.1848 27.6987 15.1133 28.173 15.4744 28.3255C15.9902 28.5626 16.4888 28.7151 17.039 28.8337C17.5548 28.9523 18.0878 29.0708 18.3285 29.579C18.3457 29.4096 18.3629 29.2402 18.3973 29.0878C18.2254 29.291 17.9331 29.1894 17.7267 29.1216C17.3313 29.0031 16.953 28.8506 16.592 28.6812C15.9386 28.3763 15.3024 27.9867 14.8554 27.4277C14.4256 26.9026 14.1676 26.2589 14.2192 25.5644C14.2536 25.0223 14.3052 24.4464 13.7722 24.1415C13.1704 23.7858 12.5858 24.1754 12.0528 24.4464C11.3651 24.8021 10.6773 25.1578 9.98956 25.5136C9.37059 25.8354 8.75162 26.1573 8.13264 26.4791C8.01228 26.5469 7.89193 26.6146 7.77157 26.6654C7.03224 27.0381 6.34449 27.2922 5.55358 27.4785C5.46761 27.4955 5.34725 27.4785 5.34725 27.5971C5.34725 27.5463 5.46761 27.4277 5.51919 27.3938C5.63955 27.2583 5.7599 27.1567 5.91465 27.055C6.24133 26.8348 6.63678 26.7332 7.01505 26.6316C7.80596 26.4113 8.59687 26.2081 9.40498 26.0556C10.2131 25.9032 11.0728 25.8015 11.8981 25.8524C12.07 25.8524 12.689 25.937 12.4139 26.2081C12.1904 26.4283 11.6574 26.4622 11.3479 26.4622C11.1759 26.4622 10.8664 26.496 10.6945 26.4283C10.5054 26.3436 10.5742 26.242 10.6429 26.0387C10.7633 25.7168 10.9696 25.4289 11.2103 25.2087C11.623 24.836 12.3107 24.548 12.8609 24.8191C13.6346 25.2087 12.8609 26.0895 12.4483 26.4283C12.1388 26.6993 11.7949 26.9703 11.4338 27.1736C11.2791 27.2583 11.09 27.36 10.918 27.3938C10.6085 27.4277 10.7289 27.1906 10.8149 26.9873C10.9008 26.801 10.8836 26.5299 10.6601 26.4283C9.92079 26.0726 9.3362 26.6485 8.76881 27.055C8.09825 27.5463 7.4105 28.0375 6.70556 28.4779C6.43046 28.6473 6.15536 28.7829 5.81149 28.6473C5.53639 28.5288 5.31287 28.3424 5.08935 28.173C4.60792 27.8173 4.07492 27.5802 3.47314 27.7157C3.3012 27.7496 3.12926 27.8343 2.95732 27.8851C2.87136 27.9189 2.78539 27.9528 2.68222 27.9698H2.59626C2.44151 27.9698 2.42432 28.0714 2.57906 28.2577C2.63064 28.2577 2.80258 28.0714 2.85416 28.0375C2.99171 27.9528 3.11207 27.8512 3.24962 27.7665C3.69665 27.4955 4.16089 27.2414 4.60792 27.0042C5.2097 26.6824 5.86307 26.5638 6.49923 26.3775C7.32453 26.1403 8.13264 25.8693 8.92355 25.5474C9.74885 25.2256 10.5742 24.8699 11.3995 24.5311C11.8293 24.3448 12.2591 24.1754 12.7062 24.006C13.1532 23.8366 13.7378 23.4978 14.2192 23.5825C14.1161 23.4131 14.0301 23.2437 13.9269 23.0743C13.669 24.0229 12.2763 24.2939 11.4338 24.4464C10.8836 24.565 10.3162 24.6158 9.74885 24.6158C9.59411 24.6158 9.43936 24.6158 9.30181 24.6158C9.25023 24.6158 9.0783 24.548 9.11268 24.6497C9.09549 24.5819 9.54253 24.2092 9.57692 24.1754C10.2819 23.5486 11.1587 23.1251 12.0872 22.9218C12.5342 22.8202 12.9985 22.7863 13.4627 22.8033C13.841 22.8033 14.5287 22.8033 14.7522 23.1759C14.7522 23.0743 14.7178 22.9727 14.7178 22.8541C14.6663 23.0065 14.4256 22.8541 14.4256 22.7186C14.4256 22.2782 15.0101 22.4137 15.2508 22.5153C15.9042 22.8033 16.5576 23.3115 17.1078 23.7688C17.4001 24.006 17.6924 24.277 17.8299 24.6327C17.9331 24.8868 18.019 25.5136 17.5892 25.4627C17.0046 25.395 16.6607 24.5988 16.506 24.1415C16.42 23.8705 16.2997 23.3961 16.592 23.1759C16.7983 23.0235 17.2281 23.0743 17.4688 23.0574C18.3285 23.0235 19.1882 23.0065 20.0479 23.1082C20.8388 23.1929 21.6125 23.4131 22.3003 23.8027C22.6098 23.9721 22.9021 24.1923 23.16 24.4464C23.2459 24.5311 23.4695 24.7174 23.4351 24.8529C23.3835 25.0562 22.9536 24.9207 22.8333 24.9037C22.0424 24.7682 21.1999 24.6666 20.4262 24.4294C20.0823 24.3109 19.7556 24.1584 19.4977 23.8874C19.2914 23.6672 18.9475 23.1251 19.3602 22.9388C19.6696 22.8033 20.1855 22.8541 20.5121 22.871C20.7185 22.871 20.942 22.9388 21.1483 22.9388C21.1483 22.9388 21.1827 22.9388 21.1999 22.9388C21.303 22.9727 21.2687 22.9388 21.0967 22.8372C21.0108 22.8033 20.7872 22.888 20.7013 22.9049C19.8244 23.0065 18.9475 22.8372 18.0878 22.6508C17.3141 22.4814 16.42 22.3629 15.7323 21.9055C15.5088 21.753 15.2165 21.3973 15.5603 21.211C15.8182 21.0755 16.2481 21.1602 16.5232 21.1771C16.6779 21.1771 16.9874 21.2618 17.125 21.2279C17.1765 21.2279 17.2453 21.1771 17.1937 21.1263C17.1078 21.0755 16.7467 21.1093 16.6435 21.0924C16.4028 21.0585 16.1621 21.0246 15.9214 20.9908C15.0273 20.8553 14.1505 20.6859 13.2736 20.5334C11.4854 20.2454 9.68008 20.0591 7.87473 20.381C6.99785 20.5334 6.15536 20.8214 5.38164 21.2449C4.64231 21.6514 3.95456 22.2612 3.07768 22.3459C3.18084 22.5831 3.26681 22.8033 3.36997 23.0404C4.59073 21.7022 6.34449 21.0077 8.14983 20.9061C8.61406 20.8891 9.09549 20.9061 9.55972 20.9399C9.64569 20.9399 10.2131 21.0416 10.2303 21.0246C10.1959 20.9738 10.1787 20.9061 10.1443 20.8553C10.2131 20.7706 10.1959 20.7367 10.0927 20.7536C10.0068 20.7028 9.76605 20.7536 9.66288 20.7367C9.21585 20.6859 8.75162 20.5503 8.32177 20.3979C8.28738 20.3979 7.63402 20.1438 7.65122 20.093C7.65122 20.1099 8.18422 20.093 8.253 20.093C9.16427 20.0591 10.0755 20.1607 10.9696 20.3979C11.3995 20.5165 11.8121 20.652 12.2248 20.8214C12.3967 20.8891 12.5686 20.9738 12.7406 21.0585C12.8265 21.1093 13.2048 21.2449 13.2564 21.3465C13.3767 21.5836 12.603 21.5328 12.4999 21.5159C12.0012 21.5159 11.5198 21.4142 11.0384 21.3296C10.1443 21.1771 9.26743 21.1093 8.37335 21.1771C7.51367 21.2449 6.67117 21.4312 5.86307 21.7361C5.05496 22.041 4.33282 22.4645 3.59349 22.9049C3.23242 23.1251 2.85416 23.3284 2.42432 23.43C2.01167 23.5147 1.39269 23.5655 1.01443 23.3623C0.618975 23.1421 1.06601 22.5661 1.27234 22.3459C1.58182 22.0241 1.99447 21.7869 2.42432 21.6175C3.26681 21.2957 4.21247 21.2449 5.03777 20.8722C5.38164 20.7197 5.62235 20.4995 5.84587 20.2116C6.10378 19.8728 6.36169 19.7034 6.75714 19.5509C8.21861 18.975 9.86921 19.2291 11.3307 19.6356C11.9668 19.805 12.5858 20.0252 13.2048 20.2285C13.3423 20.2793 13.4799 20.3132 13.6174 20.364C13.6862 20.3809 13.8754 20.4995 13.9441 20.4826C14.3396 20.4148 13.9097 20.093 13.8582 19.9913C13.7722 19.8389 13.7378 19.6695 13.7206 19.517C13.6346 18.8733 13.6174 17.7892 14.4256 17.6198C15.1133 17.4843 16.0246 17.9078 16.4544 18.4329C16.4544 18.4499 16.4888 18.4668 16.506 18.4837C16.5404 18.6023 16.6092 18.6193 16.7123 18.5515C16.6779 18.5007 16.4716 18.4499 16.4372 18.4329C16.2481 18.3482 16.059 18.2466 15.887 18.145C15.8354 18.1111 15.5088 17.9586 15.5088 17.8909C15.5088 17.8231 16.1105 17.7045 16.2137 17.6707C17.3141 17.4335 18.0018 18.0772 18.81 18.704C19.1538 18.975 19.4977 19.246 19.8416 19.517C20.1511 19.7881 20.5293 20.093 20.5637 20.5334C20.5637 20.7875 20.5637 20.923 20.3058 20.8044C20.1167 20.7197 19.9275 20.6012 19.7556 20.4826C19.4633 20.2963 18.8787 19.9744 18.8443 19.5848C18.81 19.1444 19.3602 19.0936 19.6696 19.0427C20.0823 18.958 20.4949 18.8903 20.9248 18.8733C21.7845 18.8225 22.5754 19.0258 23.0396 19.7881C23.1084 19.8897 23.2803 20.1438 23.2631 20.2624C23.2116 20.4318 23.0224 20.3979 22.8849 20.364C22.6098 20.2963 22.3863 20.1099 22.1971 19.9236C21.7501 19.517 21.3546 19.0089 20.7872 18.7548C20.4606 18.6023 20.1167 18.5684 19.7556 18.5515C19.3086 18.5176 18.8959 18.416 18.4833 18.2127C17.7783 17.8739 17.125 17.4166 16.3512 17.2133C15.4744 16.9592 14.5459 17.027 13.6518 17.0439C12.6374 17.0439 11.623 16.9592 10.6429 16.7559C10.471 16.7221 10.2991 16.6882 10.1443 16.6374C10.0755 16.6035 9.97237 16.5696 9.92079 16.5188C9.83482 16.4171 9.83482 16.4849 9.9036 16.3833C9.97237 16.2647 10.2647 16.18 10.385 16.1461C10.6085 16.0614 10.8493 15.9937 11.09 15.9598C11.4854 15.909 11.8981 15.9259 12.2763 16.0275C12.5342 16.0953 13.1704 16.2478 13.2392 16.5527C13.3595 16.9592 12.6202 17.027 12.3967 17.01C12.0356 17.01 11.6917 16.9253 11.3479 16.8406C11.09 16.7729 10.8493 16.7051 10.5913 16.6543C9.69727 16.4171 8.786 16.1969 7.87473 15.9598C7.59963 15.892 7.32453 15.8243 7.04943 15.7565C6.96347 15.7396 6.61959 15.6888 6.5852 15.621C6.55082 15.5363 6.94627 15.4008 6.98066 15.3839C7.39331 15.1975 7.84035 15.0451 8.28738 14.9604C9.16427 14.774 10.0755 14.774 10.9524 14.9604C10.8493 14.791 10.7633 14.6216 10.6601 14.4522C10.5913 14.7402 10.1615 14.791 9.9036 14.8079C9.42217 14.8587 8.95794 14.8926 8.47651 14.9434C7.46208 15.0789 6.46485 15.2822 5.4848 15.5702C5.02057 15.7057 4.55634 15.8582 4.1093 16.0275C3.71385 16.1631 3.31839 16.3325 3.06049 16.6543C2.54467 17.3149 3.11207 18.1619 3.90298 18.1111C4.77986 18.0772 5.67394 17.7045 6.46485 17.3488C7.30734 16.9761 8.11545 16.5188 8.92355 16.0784C9.80043 15.6041 10.6945 15.1467 11.6574 14.8757C12.1388 14.7402 12.6202 14.6385 13.1188 14.6046C13.3423 14.6046 13.5487 14.6046 13.7722 14.6046C13.8754 14.6046 14.0301 14.6555 14.1333 14.6555C14.1676 14.6555 14.202 14.6893 14.2536 14.7063C14.3568 14.5877 14.3396 14.5708 14.1848 14.6555C14.1161 14.6555 13.4799 14.774 13.6862 14.503C13.755 14.4014 14.1333 14.3844 14.2364 14.3675C14.7178 14.2659 15.3368 14.1812 15.7151 14.5877C16.0418 14.9265 15.8698 15.2992 15.5088 15.5363C15.1649 15.7735 14.7006 15.8412 14.3052 15.7565C13.9613 15.6888 13.6174 15.4685 13.4627 15.1467C13.2392 14.6385 13.8066 14.2997 14.2364 14.1981C15.1133 14.0118 16.1449 14.3336 16.9358 14.6724C18.6036 15.3838 19.876 16.8745 21.6985 17.2133C22.4378 17.3488 23.2287 17.3319 23.9165 17.01C24.5183 16.7221 25.3264 16.0275 24.8622 15.3161C24.6386 14.9773 24.14 14.8587 23.7961 14.7063C23.2459 14.4861 22.6957 14.2659 22.1283 14.0456C21.0967 13.6391 20.0651 13.2834 18.9475 13.1479C17.8987 13.0123 16.8155 13.0293 15.7839 12.7921C15.5088 12.7244 15.2337 12.6566 14.9758 12.555C14.9414 12.555 14.735 12.4364 14.6835 12.4364C14.5631 12.3517 14.5631 12.3687 14.6491 12.4872C14.6663 12.4533 14.6835 12.4195 14.7178 12.3856C14.907 12.284 15.1133 11.7927 15.2508 11.6064C15.4228 11.3523 15.6119 11.0982 15.7839 10.8272C15.9386 10.607 15.7839 10.2851 15.5431 10.2343C14.5115 9.98021 13.841 10.8102 13.0157 11.2337C12.9297 11.2676 12.8437 11.3184 12.7578 11.3354C12.7062 11.3354 12.6546 11.3692 12.5858 11.3692C12.4311 11.3692 12.4483 11.3862 12.6546 11.4539C12.7062 11.4539 12.9297 11.2168 12.9641 11.1829C13.1188 11.0474 13.2736 10.9457 13.4283 10.8102C13.8066 10.4884 13.7034 9.84469 13.1188 9.84469C12.8093 9.84469 12.4483 9.99714 12.156 10.0649C11.8293 10.1496 11.5026 10.2512 11.1759 10.3529C10.5398 10.5561 9.92079 10.7933 9.30181 11.0643C8.66565 11.3354 8.06387 11.6403 7.46208 11.9621C7.16979 12.1315 6.8775 12.3009 6.5852 12.4703C6.36168 12.6058 5.89745 13.0123 5.60516 12.8938C5.67394 13.0462 5.72552 13.1987 5.79429 13.3511C6.00062 12.3856 7.39331 11.979 8.21861 11.7419C8.76881 11.5725 10.3506 11.3015 9.71446 10.3867C9.47375 10.031 9.09549 10.0818 8.73442 10.2004C8.27019 10.3698 7.80596 10.5561 7.35892 10.7764C6.89469 10.9966 6.44765 11.2168 6.00062 11.4539C5.4848 11.708 4.96899 12.0299 4.3844 12.0637C4.52195 12.2331 4.6595 12.4025 4.77986 12.5889C4.86583 12.3009 5.38164 12.1484 5.62235 12.0468C6.00062 11.8605 6.39607 11.6741 6.79153 11.5047C7.53086 11.1829 8.27019 10.8949 9.02672 10.6408C9.76605 10.3867 10.5226 10.1665 11.2963 9.98021C11.7089 9.87857 12.1388 9.75999 12.5686 9.77693C12.9985 9.77693 13.3595 9.99715 13.7034 10.2174C15.0101 11.0135 16.2653 12.0299 17.7267 12.555C18.2426 12.7413 19.1194 13.0293 19.5837 12.5889C20.0651 12.1146 19.6868 11.3692 19.4461 10.878C18.8787 9.69224 17.8643 8.74364 16.6263 8.26933C15.2852 7.74421 13.8754 7.87973 12.5858 8.45567C11.8637 8.77751 11.2103 9.18406 10.4538 9.42121C9.71446 9.65836 8.95794 9.74305 8.18422 9.70918C7.80596 9.69224 7.4277 9.62448 7.06663 9.53978C6.8775 9.48897 6.72275 9.5059 6.70556 9.28569C6.70556 9.1163 6.77433 8.91303 6.84311 8.77751C7.1526 8.20158 7.75438 7.81197 8.33897 7.54094C9.66288 6.93113 11.2275 6.86337 12.603 7.33767C13.9269 7.79503 15.0101 8.74364 16.3856 9.08242C16.9186 9.21794 17.6236 9.30263 17.9159 8.7267C18.2769 8.03218 17.658 7.50706 17.2109 7.08358C16.1793 6.1011 15.0961 5.11862 13.7894 4.5088C12.603 3.94981 11.1931 3.7296 9.92079 4.10226C9.31901 4.27165 8.68284 4.5935 8.28738 5.08474C7.92632 5.52516 7.80596 6.21968 8.2358 6.6601C8.68284 7.1344 9.52533 6.99889 10.0927 6.88031C10.7977 6.72786 11.4338 6.37213 11.9668 5.88089C12.9813 4.94923 13.6862 3.69572 15.2165 3.57714C15.8526 3.52632 16.506 3.6449 17.0562 3.96675C17.1765 4.0345 17.2969 4.10226 17.4001 4.2039C17.4001 4.2039 17.5204 4.33941 17.5204 4.39023C17.5204 4.54268 17.5204 4.42411 17.4001 4.45799C17.0734 4.52574 16.6263 4.33941 16.3512 4.18696C15.6807 3.83123 15.1993 3.25529 14.735 2.67936C14.374 2.222 13.9097 1.42585 13.308 1.29033C12.6374 1.13788 12.2763 1.81545 12.3795 2.37445C12.4311 2.6963 12.6718 3.0012 12.5342 3.32305C12.4139 3.61102 12.07 3.81429 11.7949 3.91593C11.4854 4.0345 11.09 4.1192 10.7461 4.13614C10.2647 4.15308 10.4538 3.69572 10.557 3.40775C10.7633 2.81487 11.1072 2.27281 11.537 1.81545C11.9668 1.35809 12.4827 1.00236 13.0672 0.748275C13.5487 0.528064 13.136 -0.166449 12.6546 0.0368232C11.4854 0.545003 10.5226 1.51054 9.97237 2.64548C9.73166 3.15366 9.40498 3.84817 9.69727 4.39023C10.024 5.00004 10.6429 4.98311 11.2447 4.88147C11.8981 4.76289 12.5514 4.57656 12.9985 4.05144C13.1704 3.84817 13.308 3.61102 13.3595 3.33999C13.4283 2.98427 13.2908 2.6963 13.1876 2.35751C13.1532 2.20506 13.0501 2.08648 13.1876 2.20506C13.3252 2.32363 13.4455 2.49302 13.5659 2.62854C13.8066 2.91651 14.0473 3.22142 14.288 3.50938C14.735 4.05144 15.2508 4.57656 15.887 4.91535C16.42 5.20332 17.2281 5.45741 17.8127 5.20332C18.4145 4.94923 18.3973 4.27165 18.0534 3.81429C17.3313 2.83181 15.7323 2.62854 14.6147 2.84875C13.1532 3.13672 12.4139 4.27165 11.4166 5.2372C10.8836 5.76231 10.1959 6.11804 9.43936 6.1858C9.16426 6.20274 8.64845 6.27049 8.75162 5.84701C8.83758 5.52516 9.26743 5.27107 9.55972 5.13556C10.8149 4.49187 12.3795 4.74596 13.5831 5.37271C14.2536 5.72844 14.8726 6.16886 15.44 6.6601C15.7151 6.89725 15.973 7.11746 16.2309 7.37155C16.4888 7.6087 16.9014 7.89667 17.0906 8.20158C17.3313 8.57424 16.6951 8.38791 16.506 8.33709C16.1449 8.25239 15.8182 8.09994 15.4916 7.94749C14.8382 7.62564 14.2192 7.23604 13.5659 6.93113C12.2763 6.32131 10.8664 6.13498 9.45656 6.38907C8.20142 6.62622 6.70556 7.25297 6.06939 8.42179C5.81149 8.91303 5.62235 9.69224 6.10378 10.1157C6.5852 10.5223 7.51367 10.5731 8.11545 10.607C9.69727 10.6917 11.0556 10.1835 12.4311 9.5059C13.1188 9.16712 13.8066 8.86221 14.5975 8.84527C15.3024 8.81139 16.0074 8.96385 16.6263 9.26875C17.2625 9.57366 17.8127 10.048 18.2254 10.607C18.4317 10.878 18.6036 11.1829 18.7412 11.4878C18.81 11.6233 18.8615 11.7758 18.8959 11.9282C18.9303 12.0468 18.9647 12.0468 18.8787 12.0976C18.7928 12.1484 18.6036 12.0637 18.5177 12.0468C17.7611 11.8943 17.0734 11.4878 16.42 11.0982C15.7151 10.6578 15.0273 10.2174 14.3396 9.77693C13.7034 9.37039 13.0844 9.0316 12.2935 9.08242C11.5026 9.1163 10.6945 9.38733 9.93798 9.60754C8.42493 10.048 6.92908 10.6239 5.502 11.3015C4.91741 11.5725 4.14369 11.8266 3.93737 12.5042C3.86859 12.7583 4.07492 13.0293 4.33282 13.0293C5.2097 12.9785 5.96623 12.5211 6.72275 12.1315C7.1354 11.9282 7.56525 11.708 7.9779 11.5217C8.18422 11.437 8.37335 11.3523 8.57968 11.2676C8.68284 11.2337 8.786 11.1829 8.88917 11.149C9.0611 11.0813 9.18146 11.149 9.02672 10.9457C8.90636 10.7764 8.90636 10.8272 8.71723 10.878C8.59687 10.9119 8.49371 10.9457 8.37335 10.9796C8.14983 11.0474 7.92632 11.1151 7.71999 11.166C7.32453 11.2845 6.92908 11.42 6.56801 11.6064C5.86307 11.9452 5.10654 12.5042 4.91741 13.3003C4.88302 13.4528 4.9346 13.6899 5.10654 13.7577C5.79429 14.0456 6.34449 13.7069 6.91188 13.3342C7.53086 12.9446 8.16703 12.6058 8.82039 12.284C9.49095 11.9621 10.1787 11.6741 10.8836 11.437C11.2447 11.3015 11.623 11.1829 12.0012 11.0813C12.3107 10.9966 12.775 10.7764 13.1016 10.8102C12.9985 10.7764 12.9125 10.7255 12.8093 10.6917C12.8265 10.7086 12.8437 10.7255 12.8609 10.7425L12.7406 10.4545C12.8265 10.3021 12.8265 10.2851 12.7234 10.3867C12.6546 10.4376 12.5858 10.5053 12.4999 10.5561C12.3623 10.6747 12.2248 10.7933 12.0872 10.9119C11.8809 11.0982 11.6746 11.3015 11.6574 11.5894C11.6058 12.1993 12.2076 12.3687 12.7062 12.284C13.2048 12.1993 13.6174 11.8943 14.0129 11.6233C14.3568 11.3862 14.7694 11.0304 15.2165 11.149C15.1305 10.9457 15.0445 10.7425 14.9758 10.5561C14.6319 11.0643 14.2364 11.5725 13.9097 12.0976C13.669 12.4872 13.6518 12.9276 14.0817 13.1987C14.9586 13.7407 16.1449 13.8254 17.1422 13.9101C18.2941 14.0118 19.4117 14.0795 20.5121 14.4352C21.0795 14.6216 21.6469 14.8587 22.1971 15.0789C22.4722 15.1975 22.7473 15.2992 23.0224 15.4177C23.1772 15.4685 23.3319 15.5363 23.4867 15.6041C23.6242 15.6549 23.9165 15.7226 24.0025 15.8243C24.1056 15.9428 24.0712 15.8243 24.054 15.9428C24.054 16.0106 23.8477 16.1631 23.7961 16.1969C23.6242 16.3325 23.4179 16.4341 23.1944 16.5018C22.7473 16.6374 22.2831 16.6374 21.8361 16.5527C20.8216 16.3663 19.9619 15.7565 19.1194 15.1806C18.191 14.5369 17.2281 13.9779 16.1277 13.6899C15.1993 13.4358 14.0473 13.2834 13.2048 13.8424C12.3623 14.4014 12.2935 15.4685 13.0157 16.1461C13.6518 16.739 14.6319 16.8745 15.44 16.5696C16.3169 16.2308 16.9874 15.2822 16.42 14.4014C15.8182 13.4697 14.6491 13.5375 13.6862 13.7577C13.2908 13.8424 12.9125 13.9779 12.7578 14.3675C12.5858 14.8249 12.8437 15.2992 13.2564 15.5194C13.9269 15.8582 15.5775 15.333 14.8898 14.4014C14.3224 13.6391 12.8265 13.8932 12.0356 14.0456C10.9352 14.2659 9.8864 14.7232 8.88917 15.2483C7.78877 15.8243 6.72275 16.4849 5.57077 16.9423C5.26129 17.0608 4.9518 17.1625 4.64231 17.2641C4.4016 17.3319 4.05772 17.4504 3.81701 17.4504C3.3012 17.4335 3.76543 17.1455 3.98895 17.0439C4.26405 16.9253 4.57354 16.8406 4.84864 16.739C6.12097 16.3155 7.4277 16.0275 8.76881 15.8751C9.6113 15.7735 11.0728 15.892 11.3307 14.8249C11.3823 14.6216 11.2619 14.3675 11.0384 14.3167C9.80043 14.0456 8.5281 14.0795 7.32453 14.4691C6.84311 14.6216 6.12097 14.8249 5.79429 15.2314C5.51919 15.5702 5.57077 16.0784 5.88026 16.3663C6.25852 16.7221 7.03224 16.7729 7.54805 16.9084C8.21861 17.0778 8.88917 17.2472 9.55972 17.4166C10.7289 17.7045 12.6718 18.5176 13.6174 17.4843C13.9613 17.0947 14.0129 16.5188 13.6862 16.1122C13.3767 15.7226 12.8093 15.5024 12.3279 15.3839C11.7777 15.2483 11.1931 15.2314 10.6257 15.3161C10.1099 15.4008 9.45656 15.6041 9.09549 15.9937C8.75162 16.3494 8.786 16.8745 9.12988 17.1964C9.52533 17.586 10.1271 17.6707 10.6429 17.7554C12.0184 18.0094 13.3767 17.9586 14.7694 17.9756C15.44 17.9756 16.059 18.1111 16.6607 18.399C17.1765 18.6531 17.658 18.958 18.191 19.1783C18.7584 19.4154 19.2742 19.4323 19.876 19.517C20.3402 19.5679 20.6669 19.8897 20.9936 20.1946C21.561 20.7536 22.2315 21.4651 23.1256 21.3126C24.5699 21.0585 23.7102 19.3815 23.0052 18.8056C22.1283 18.0941 20.9764 18.128 19.9104 18.2805C19.4117 18.3482 18.8271 18.399 18.3973 18.704C17.9675 19.0089 17.7611 19.5509 17.9331 20.0591C18.1222 20.6012 18.6036 20.9569 19.0679 21.2618C19.4977 21.5498 20.0995 22.0071 20.6497 21.77C21.1483 21.5667 21.2859 20.9399 21.1999 20.4487C21.0967 19.8728 20.7013 19.4323 20.2714 19.0766C19.7728 18.6531 19.2398 18.2466 18.724 17.8401C18.2426 17.4504 17.7267 17.0778 17.1078 16.9592C16.3341 16.8237 14.2192 17.027 14.5803 18.2466C14.7178 18.7378 15.4056 19.0258 15.8354 19.2291C16.2825 19.4493 16.8499 19.6864 17.2109 19.1952C17.5032 18.7717 17.1937 18.2466 16.8843 17.9247C16.5232 17.5351 16.0074 17.2641 15.5088 17.0778C14.5115 16.7221 13.3595 16.9084 12.9297 17.9756C12.6202 18.7717 12.603 20.1438 13.222 20.8044C13.5315 21.1263 14.0817 21.3296 14.4599 21.0077C14.8898 20.652 14.5975 20.093 14.202 19.8728C13.8582 19.6864 13.4283 19.6017 13.0501 19.4662C12.5858 19.3138 12.1388 19.1613 11.6746 19.0258C10.6257 18.7209 9.52533 18.5007 8.44213 18.5176C7.89193 18.5176 7.32453 18.6023 6.79153 18.7548C6.3101 18.9072 5.70832 19.1105 5.36445 19.4832C5.2097 19.6526 5.10654 19.8728 4.9346 20.0252C4.69389 20.2454 4.35002 20.3471 4.02334 20.4318C3.35278 20.6012 2.68222 20.7197 2.02886 20.9738C1.16917 21.2957 0 22.1088 0 23.2268C0 24.5141 1.90851 24.4803 2.76819 24.2431C3.36997 24.0737 3.88579 23.7349 4.4016 23.4131C4.9518 23.0743 5.51919 22.7694 6.12097 22.5492C7.32453 22.1088 8.61407 21.9394 9.9036 22.041C10.5742 22.0918 11.2275 22.2443 11.8809 22.329C12.3967 22.3967 13.1704 22.4814 13.6518 22.1935C14.0129 21.9732 14.1676 21.5159 14.0301 21.1263C13.8754 20.6689 13.2908 20.4487 12.8781 20.2624C11.7261 19.7203 10.5054 19.3985 9.23304 19.3138C8.64845 19.2799 7.94351 19.2121 7.35892 19.3646C6.89469 19.5001 6.5852 19.9913 6.84311 20.4487C7.10102 20.923 7.80596 21.1093 8.30458 21.2787C8.92355 21.4651 9.64569 21.6683 10.2991 21.5667C10.7117 21.4989 11.0212 21.1602 10.918 20.7197C10.7633 20.1607 10.0755 20.1946 9.6113 20.1438C8.28738 20.0083 6.91188 20.1438 5.65674 20.5842C4.55634 20.9738 3.5591 21.6175 2.76819 22.4645C2.54467 22.7016 2.68222 23.1929 3.06049 23.159C3.81701 23.0912 4.45318 22.7525 5.08935 22.3629C5.74271 21.9563 6.37888 21.6006 7.10102 21.3973C8.66565 20.923 10.3506 20.9738 11.9668 21.1771C12.8437 21.2957 13.7206 21.4481 14.5975 21.6006C15.4056 21.7361 16.2481 21.9394 17.0734 21.9563C17.6064 21.9563 18.1222 21.6345 18.0018 21.0416C17.8643 20.381 17.0734 20.3809 16.5232 20.364C15.9558 20.3301 15.2508 20.2963 14.821 20.7367C14.3396 21.2449 14.5459 22.0071 15.0273 22.4306C15.5603 22.888 16.3341 23.1251 17.0046 23.2776C17.8299 23.4639 18.6552 23.6502 19.4977 23.7349C19.9104 23.7688 20.323 23.7858 20.7357 23.7349C21.0795 23.7011 21.5094 23.6672 21.7845 23.43C22.2831 22.9727 21.9736 22.2951 21.3718 22.1765C20.6841 22.041 19.7728 21.9732 19.0851 22.1935C18.4145 22.4137 18.2082 23.0912 18.4317 23.718C18.9475 25.2087 20.7357 25.395 22.0768 25.6321C22.7301 25.7507 23.5898 26.0556 24.0712 25.4119C24.5183 24.8191 24.054 24.1923 23.5898 23.7688C22.4722 22.7694 20.9592 22.3798 19.4805 22.2782C18.638 22.2273 17.7955 22.2443 16.9702 22.2951C16.3856 22.329 15.887 22.5492 15.6807 23.1082C15.2852 24.1754 16.1105 25.8015 17.1594 26.2081C17.7611 26.4452 18.3629 26.2589 18.6036 25.666C18.8787 25.0054 18.6552 24.2939 18.2254 23.7688C17.7439 23.1929 17.0734 22.7525 16.4544 22.329C15.9214 21.9732 15.3196 21.5498 14.6319 21.6345C13.3939 21.8039 13.222 23.7688 14.6147 23.7349C15.1305 23.7349 15.7667 23.2268 15.4228 22.6847C15.0961 22.1765 14.4084 22.0749 13.841 22.0241C12.4655 21.8886 11.0384 22.2443 9.86921 22.9557C9.3534 23.2776 8.70003 23.718 8.39055 24.2431C8.08106 24.7852 8.49371 25.3103 9.04391 25.4119C9.78324 25.5474 10.6257 25.4119 11.3479 25.3103C12.0872 25.1917 12.8437 25.0054 13.5143 24.6497C14.0817 24.3617 14.5459 23.9213 14.7178 23.3115C14.7694 23.1251 14.6491 22.8372 14.4256 22.8033C13.5315 22.6678 12.6374 23.159 11.8465 23.4808C10.9868 23.8366 10.1271 24.2092 9.25023 24.548C8.39055 24.9037 7.51367 25.2256 6.61959 25.4966C5.82868 25.7338 4.98619 25.8524 4.24685 26.2589C3.76543 26.513 3.3012 26.7671 2.83697 27.0381C2.40712 27.3091 1.58182 27.7157 1.73657 28.3255C1.94289 29.2572 3.11207 28.5965 3.66227 28.4949C4.28124 28.3763 4.77986 29.0369 5.29567 29.308C6.15536 29.7653 6.8603 29.3419 7.59963 28.8506C8.01228 28.5626 8.44213 28.2747 8.85478 27.9867C9.0611 27.8343 9.26743 27.6818 9.47375 27.5293C9.6113 27.4277 10.024 27.0381 10.2131 27.1228C10.1615 26.9365 10.1099 26.7501 10.0583 26.5638C9.8864 26.9534 9.71446 27.36 9.95518 27.7665C10.1615 28.1222 10.557 28.2747 10.9696 28.2069C11.8465 28.0545 12.689 27.36 13.2908 26.7501C13.8582 26.1911 14.2364 25.3103 13.755 24.5819C13.3767 23.989 12.5686 23.8196 11.9153 23.9551C11.1244 24.1076 10.4022 24.6666 10.0068 25.3611C9.6285 26.0387 9.45656 26.9873 10.4194 27.2244C11.1759 27.4108 12.4311 27.3261 13.0157 26.7163C13.669 26.0217 12.9641 25.1917 12.1904 25.0731C11.1587 24.9207 10.0583 25.0731 9.04391 25.2764C8.01228 25.4797 6.89469 25.6999 5.91465 26.0895C5.34725 26.3267 4.04053 27.1736 4.55634 27.9359C5.05496 28.6812 6.51643 28.0883 7.1526 27.8173C7.9779 27.4616 8.786 27.0212 9.57692 26.5977C10.5398 26.1064 11.4854 25.6152 12.4483 25.124C12.603 25.0393 13.1876 24.6327 13.3595 24.8529C13.4627 24.9884 13.3939 25.2934 13.3595 25.4458C13.3423 25.683 13.3423 25.9201 13.3595 26.1573C13.4283 26.6485 13.6174 27.1228 13.8925 27.5463C14.4771 28.461 15.4056 29.0539 16.3856 29.4774C17.0906 29.7823 18.3113 30.3921 18.9475 29.6298C19.0851 29.4774 19.1022 29.308 19.0163 29.1386C18.7756 28.6304 18.3113 28.3424 17.7783 28.1561C17.125 27.9359 16.4716 27.8681 15.8354 27.5802C15.3024 27.343 14.6835 27.0212 14.0817 27.1906C13.5659 27.3261 13.2392 27.7665 13.1876 28.2747C13.136 28.8506 13.3939 29.3927 13.4283 29.9686C13.4799 30.6801 13.3595 31.3915 13.2048 32.086C13.0501 32.7636 12.9469 33.475 12.4483 34.0171C12.1216 34.3728 11.7261 34.6608 11.3135 34.9318C10.7977 35.2876 10.2819 35.6433 9.76605 35.9821C9.59411 36.1006 9.38778 36.2192 9.23304 36.3717C8.85478 36.7613 8.95794 37.3372 9.38778 37.6252C10.4194 38.3028 11.8637 37.6421 12.8437 37.1678C13.7378 36.7274 15.0101 35.9143 14.9929 34.7794C14.9929 34.0849 14.3052 33.8138 13.7034 33.763C12.9985 33.7122 12.2935 33.9832 11.7433 34.3728C11.1759 34.7794 10.6773 35.3045 10.2131 35.8466C9.76605 36.3547 9.19865 36.8968 9.11268 37.5913C9.0783 37.8115 9.31901 37.9978 9.52533 37.9978C10.2819 38.0317 10.8836 37.6591 11.5542 37.3711C12.2591 37.0831 12.9985 36.8968 13.6862 36.5919C14.8038 36.1006 16.4544 35.0165 17.6408 35.999C17.7096 35.7619 17.7611 35.5416 17.8299 35.3214C17.039 35.6433 16.1105 35.2537 15.3884 34.898C14.5803 34.4914 14.5459 33.7461 14.5975 32.9499C14.6663 32.0691 14.7522 31.2052 14.735 30.3243C14.735 29.9178 14.7006 29.5112 14.5803 29.1216C14.4943 28.8506 14.0817 28.2747 14.2364 28.0206C14.5115 27.5632 13.7894 27.1567 13.5143 27.614" fill="#01AB4F"/>
<path d="M45.85 10C48.81 10 52.33 11.2 52.33 13.32V15.4H50.13V14.16C50.13 12.75 47.91 12.06 45.92 12.06C41.97 12.06 39.49 14.74 39.49 18.61C39.49 22.48 42.03 25.38 45.99 25.38C47.5 25.38 50.51 24.92 50.51 23.28V21.06H47.21V19.19H52.71V23.92C52.71 26.53 48.36 27.46 45.82 27.46C40.63 27.46 37 23.68 37 18.68C37 13.68 40.59 10 45.85 10Z" fill="#555759"/>
<path d="M54.86 25.37H56.68V17.38C56.68 17.02 56.49 16.85 56.15 16.85H54.64V15.06H57.37C58.42 15.06 58.92 15.49 58.92 16.47V17.23C58.92 17.71 58.87 18.07 58.87 18.07H58.92C59.47 16.3 60.88 14.91 62.75 14.91C63.06 14.91 63.35 14.96 63.35 14.96V17.26C63.35 17.26 63.06 17.19 62.68 17.19C60.1 17.19 59 19.8 59 22.16V25.36H60.79V27.15H54.86V25.36V25.37Z" fill="#555759"/>
<path d="M70.1001 14.78C73.5401 14.78 75.3401 17.31 75.3401 20.45C75.3401 20.76 75.2701 21.34 75.2701 21.34H66.4201C66.5601 24.02 68.4501 25.45 70.6101 25.45C72.7701 25.45 74.2201 24.09 74.2201 24.09L75.1801 25.79C75.1801 25.79 73.3601 27.46 70.4701 27.46C66.6701 27.46 64.0601 24.71 64.0601 21.12C64.0601 17.27 66.6701 14.78 70.1101 14.78M72.9401 19.85C72.8701 17.72 71.5801 16.62 70.0501 16.62C68.2801 16.62 66.8501 17.81 66.5101 19.85H72.9401Z" fill="#555759"/>
<path d="M82.41 14.78C85.85 14.78 87.65 17.31 87.65 20.45C87.65 20.76 87.58 21.34 87.58 21.34H78.73C78.87 24.02 80.76 25.45 82.91 25.45C85.06 25.45 86.52 24.09 86.52 24.09L87.48 25.79C87.48 25.79 85.66 27.46 82.77 27.46C78.97 27.46 76.36 24.71 76.36 21.12C76.36 17.27 78.97 14.78 82.41 14.78ZM85.26 19.85C85.19 17.72 83.9 16.62 82.37 16.62C80.6 16.62 79.17 17.81 78.83 19.85H85.26Z" fill="#555759"/>
<path d="M89.33 25.37H91.22V17.38C91.22 17.02 91.03 16.85 90.69 16.85H89.21V15.06H91.93C92.98 15.06 93.46 15.51 93.46 16.4V17.02C93.46 17.4 93.39 17.71 93.39 17.71H93.44C93.68 17.06 95.09 14.77 98.15 14.77C100.92 14.77 102.17 16.32 102.17 19.41V25.36H104.08V27.15H99.85V19.93C99.85 18.23 99.52 16.89 97.58 16.89C95.14 16.89 93.54 19.11 93.54 21.53V25.36H95.45V27.15H89.33V25.36V25.37Z" fill="#555759"/>
<path d="M103.65 15.07H109.05V16.86H107.42L109.48 23.89C109.62 24.39 109.67 25.01 109.67 25.01H109.74C109.74 25.01 109.79 24.39 109.93 23.89L112.58 15.09H114.68L117.33 23.89C117.47 24.39 117.52 25.01 117.52 25.01H117.59C117.59 25.01 117.64 24.39 117.78 23.89L119.86 16.86H118.21V15.07H123.61V16.86H122.1L118.99 27.17H116.41L113.85 19.09C113.71 18.54 113.64 17.94 113.64 17.94H113.59C113.59 17.94 113.52 18.54 113.38 19.09L110.82 27.17H108.24L105.13 16.86H103.62V15.07H103.65Z" fill="#555759"/>
<path d="M130.06 14.78C133.67 14.78 136.59 17.43 136.59 21.09C136.59 24.75 133.67 27.45 130.06 27.45C126.45 27.45 123.53 24.77 123.53 21.09C123.53 17.41 126.45 14.78 130.06 14.78ZM130.06 25.45C132.33 25.45 134.22 23.63 134.22 21.1C134.22 18.57 132.33 16.8 130.06 16.8C127.79 16.8 125.9 18.59 125.9 21.1C125.9 23.61 127.77 25.45 130.06 25.45Z" fill="#555759"/>
<path d="M144.59 14.78C148.2 14.78 151.12 17.43 151.12 21.09C151.12 24.75 148.2 27.45 144.59 27.45C140.98 27.45 138.06 24.77 138.06 21.09C138.06 17.41 140.98 14.78 144.59 14.78ZM144.59 25.45C146.86 25.45 148.75 23.63 148.75 21.1C148.75 18.57 146.86 16.8 144.59 16.8C142.32 16.8 140.43 18.59 140.43 21.1C140.43 23.61 142.3 25.45 144.59 25.45Z" fill="#555759"/>
<path d="M158.13 14.78C160.88 14.78 161.86 16.81 161.86 16.81H161.91C161.91 16.81 161.84 16.43 161.84 15.9V12.07H159.83V10.28H164.16V24.84C164.16 25.2 164.35 25.37 164.69 25.37H165.91V27.16H163.49C162.41 27.16 161.98 26.63 161.98 25.84V25.67C161.98 25.26 162.05 25.03 162.05 25.03H162C162 25.03 161.02 27.44 157.91 27.44C154.8 27.44 152.63 24.86 152.63 21.1C152.63 17.34 154.88 14.76 158.13 14.76M158.42 25.45C160.21 25.45 161.91 24.16 161.91 21.15C161.91 18.93 160.79 16.82 158.49 16.82C156.55 16.82 155 18.37 155 21.12C155 23.87 156.41 25.45 158.42 25.45Z" fill="#555759"/>
</svg>
